<svg width="20" height="19" viewBox="0 0 20 19" fill="none" xmlns="http://www.w3.org/2000/svg">
<path fill-rule="evenodd" clip-rule="evenodd" d="M13.1965 5.87152L18.8155 6.35912C19.8372 6.44039 20.2435 7.71744 19.4657 8.39079L15.205 12.0826L16.482 17.5739C16.7142 18.5724 15.6345 19.3618 14.7522 18.8278L9.93423 15.9138L5.11627 18.8162C4.23395 19.3502 3.15426 18.5607 3.38645 17.5623L4.6635 12.0826L0.402801 8.39079C-0.375038 7.71744 0.0429058 6.44039 1.06454 6.35912L6.67195 5.88313L8.86615 0.705279C9.26088 -0.235093 10.6076 -0.235093 11.0023 0.705279L13.1965 5.87152ZM5.56937 16.3784L9.93455 13.743L14.3113 16.39L13.1504 11.4211L17.0048 8.07758L11.9198 7.63642L9.93455 2.94616L7.96093 7.62481L2.87596 8.06597L6.73032 11.4095L5.56937 16.3784Z" fill="#4F4F4F"/>
</svg>
