<svg width="30" height="30" viewBox="0 0 30 30" fill="none" xmlns="http://www.w3.org/2000/svg">
<path fill-rule="evenodd" clip-rule="evenodd" d="M19.4889 20.3931C20.0667 19.8708 20.8222 19.5375 21.6667 19.5375C23.4556 19.5375 24.9111 20.9931 24.9111 22.782C24.9111 24.5708 23.4556 26.0264 21.6667 26.0264C19.8778 26.0264 18.4222 24.5708 18.4222 22.782C18.4222 22.5375 18.4556 22.2931 18.5111 22.0597L10.6 17.4375C10 17.9931 9.21111 18.3375 8.33333 18.3375C6.48889 18.3375 5 16.8486 5 15.0042C5 13.1597 6.48889 11.6708 8.33333 11.6708C9.21111 11.6708 10 12.0153 10.6 12.5708L18.4333 8.00418C18.3778 7.74862 18.3333 7.49307 18.3333 7.2264C18.3333 5.38196 19.8222 3.89307 21.6667 3.89307C23.5111 3.89307 25 5.38196 25 7.2264C25 9.07084 23.5111 10.5597 21.6667 10.5597C20.7889 10.5597 20 10.2153 19.4 9.65973L11.5667 14.2264C11.6222 14.482 11.6667 14.7375 11.6667 15.0042C11.6667 15.2708 11.6222 15.5264 11.5667 15.782L19.4889 20.3931ZM22.7778 7.22641C22.7778 6.6153 22.2778 6.1153 21.6666 6.1153C21.0555 6.1153 20.5555 6.6153 20.5555 7.22641C20.5555 7.83752 21.0555 8.33752 21.6666 8.33752C22.2778 8.33752 22.7778 7.83752 22.7778 7.22641ZM8.33323 16.1153C7.72212 16.1153 7.22212 15.6153 7.22212 15.0042C7.22212 14.3931 7.72212 13.8931 8.33323 13.8931C8.94435 13.8931 9.44435 14.3931 9.44435 15.0042C9.44435 15.6153 8.94435 16.1153 8.33323 16.1153ZM20.5555 22.8042C20.5555 23.4154 21.0555 23.9154 21.6666 23.9154C22.2778 23.9154 22.7778 23.4154 22.7778 22.8042C22.7778 22.1931 22.2778 21.6931 21.6666 21.6931C21.0555 21.6931 20.5555 22.1931 20.5555 22.8042Z" fill="#F7F6F4"/>
</svg>
