<svg width="19" height="19" viewBox="0 0 19 19" fill="none" xmlns="http://www.w3.org/2000/svg">
<path fill-rule="evenodd" clip-rule="evenodd" d="M9.4905 0C4.2465 0 0 4.256 0 9.5C0 14.744 4.2465 19 9.4905 19C14.744 19 19 14.744 19 9.5C19 4.256 14.744 0 9.4905 0ZM4.75026 7.12485C4.75026 6.33784 5.38825 5.69985 6.17526 5.69985C6.96226 5.69985 7.60026 6.33784 7.60026 7.12485C7.60026 7.91186 6.96226 8.54985 6.17526 8.54985C5.38825 8.54985 4.75026 7.91186 4.75026 7.12485ZM12.8251 5.69985C12.0381 5.69985 11.4001 6.33784 11.4001 7.12485C11.4001 7.91186 12.0381 8.54985 12.8251 8.54985C13.6121 8.54985 14.2501 7.91186 14.2501 7.12485C14.2501 6.33784 13.6121 5.69985 12.8251 5.69985ZM7.36236 12.8249H11.6374C12.0269 12.8249 12.3499 12.5019 12.3499 12.1124C12.3499 11.7229 12.0269 11.3999 11.6374 11.3999H7.36236C6.97286 11.3999 6.64986 11.7229 6.64986 12.1124C6.64986 12.5019 6.97286 12.8249 7.36236 12.8249ZM1.9001 9.49989C1.9001 13.6989 5.3011 17.0999 9.5001 17.0999C13.6991 17.0999 17.1001 13.6989 17.1001 9.49989C17.1001 5.30089 13.6991 1.89989 9.5001 1.89989C5.3011 1.89989 1.9001 5.30089 1.9001 9.49989Z" fill="#4F4F4F"/>
</svg>
