<svg width="40" height="40" viewBox="0 0 40 40" fill="none" xmlns="http://www.w3.org/2000/svg">
<path fill-rule="evenodd" clip-rule="evenodd" d="M8.85714 7C9.88281 7 10.7143 7.83147 10.7143 8.85714V10.7143L29.2857 10.7143V8.85714C29.2857 7.83147 30.1172 7 31.1429 7C32.1685 7 33 7.83147 33 8.85714V31.1429C33 32.1685 32.1685 33 31.1429 33C30.1172 33 29.2857 32.1685 29.2857 31.1429V29.2857L10.7143 29.2857V31.1429C10.7143 32.1685 9.88281 33 8.85714 33C7.83147 33 7 32.1685 7 31.1429V8.85714C7 7.83147 7.83147 7 8.85714 7ZM29.2857 25.5714V21.8571L10.7143 21.8571V25.5714L29.2857 25.5714ZM29.2857 18.1429V14.4286L10.7143 14.4286V18.1429L29.2857 18.1429Z" fill="#4F4F4F"/>
<rect x="0.5" y="0.5" width="39" height="39" stroke="black"/>
</svg>
