<svg width="30" height="30" viewBox="0 0 30 30" fill="none" xmlns="http://www.w3.org/2000/svg">
<path fill-rule="evenodd" clip-rule="evenodd" d="M19.0607 17.0094C21.0947 14.0161 20.785 9.90645 18.1316 7.25303C15.1276 4.24899 10.2571 4.24899 7.25303 7.25303C4.24899 10.2571 4.24899 15.1276 7.25303 18.1316C9.90644 20.785 14.0161 21.0947 17.0094 19.0607L22.5239 24.5752C23.0903 25.1416 24.0087 25.1416 24.5752 24.5752C25.1416 24.0087 25.1416 23.0903 24.5752 22.5239L19.0607 17.0094ZM16.3185 9.06612C18.3212 11.0688 18.3212 14.3158 16.3185 16.3185C14.3158 18.3212 11.0688 18.3212 9.06612 16.3185C7.06343 14.3158 7.06343 11.0688 9.06612 9.06612C11.0688 7.06343 14.3158 7.06343 16.3185 9.06612Z" fill="#F7F6F4"/>
</svg>
