<svg width="20" height="15" viewBox="0 0 20 15" fill="none" xmlns="http://www.w3.org/2000/svg">
<path fill-rule="evenodd" clip-rule="evenodd" d="M10.5 3.67021C10.5 5.69407 8.93 7.34042 7 7.34042C5.07 7.34042 3.5 5.69407 3.5 3.67021C3.5 1.64635 5.07 0 7 0C8.93 0 10.5 1.64635 10.5 3.67021ZM8.5 3.67021C8.5 2.79984 7.83 2.09726 7 2.09726C6.17 2.09726 5.5 2.79984 5.5 3.67021C5.5 4.54057 6.17 5.24316 7 5.24316C7.83 5.24316 8.5 4.54057 8.5 3.67021ZM7 9.17553C4.66 9.17553 0 10.4024 0 12.8457V13.6322C0 14.209 0.45 14.6808 1 14.6808H13C13.55 14.6808 14 14.209 14 13.6322V12.8457C14 10.4024 9.34 9.17553 7 9.17553ZM7 11.2728C5.21 11.2728 3.18 11.9754 2.34 12.5836H11.66C10.82 11.9754 8.79 11.2728 7 11.2728ZM14.04 9.23845C15.2 10.1193 16 11.2938 16 12.8457V14.6808H19C19.55 14.6808 20 14.209 20 13.6322V12.8457C20 10.7275 16.5 9.52158 14.04 9.23845ZM16.5 3.67021C16.5 5.69407 14.93 7.34042 13 7.34042C12.46 7.34042 11.96 7.2041 11.5 6.9734C12.13 6.04012 12.5 4.89711 12.5 3.67021C12.5 2.44331 12.13 1.3003 11.5 0.367021C11.96 0.136322 12.46 0 13 0C14.93 0 16.5 1.64635 16.5 3.67021Z" fill="#ECA39D"/>
</svg>
