<svg width="30" height="31" viewBox="0 0 30 31" fill="none" xmlns="http://www.w3.org/2000/svg">
<path d="M27.5 15.0743C27.5 8.14017 21.9 2.51245 15 2.51245C8.1 2.51245 2.5 8.14017 2.5 15.0743C2.5 22.0085 8.1 27.6362 15 27.6362C21.9 27.6362 27.5 22.0085 27.5 15.0743Z" stroke="#F7F6F4" stroke-width="2"/>
<path d="M14.1667 12.1432C14.1667 13.2995 13.2339 14.2369 12.0833 14.2369C10.9327 14.2369 10 13.2995 10 12.1432C10 10.9869 10.9327 10.0496 12.0833 10.0496C13.2339 10.0496 14.1667 10.9869 14.1667 12.1432Z" fill="#F7F6F4"/>
<path d="M20 12.1432C20 13.2995 19.0673 14.2369 17.9167 14.2369C16.7661 14.2369 15.8333 13.2995 15.8333 12.1432C15.8333 10.9869 16.7661 10.0496 17.9167 10.0496C19.0673 10.0496 20 10.9869 20 12.1432Z" fill="#F7F6F4"/>
<path d="M14.1667 18.0054C14.1667 19.1617 13.2339 20.0991 12.0833 20.0991C10.9327 20.0991 10 19.1617 10 18.0054C10 16.8491 10.9327 15.9118 12.0833 15.9118C13.2339 15.9118 14.1667 16.8491 14.1667 18.0054Z" fill="#F7F6F4"/>
<path d="M20 18.0054C20 19.1617 19.0673 20.0991 17.9167 20.0991C16.7661 20.0991 15.8333 19.1617 15.8333 18.0054C15.8333 16.8491 16.7661 15.9118 17.9167 15.9118C19.0673 15.9118 20 16.8491 20 18.0054Z" fill="#F7F6F4"/>
</svg>
