<svg width="40" height="40" viewBox="0 0 40 40" fill="none" xmlns="http://www.w3.org/2000/svg">
<mask id="path-2-outside-1_492_41" maskUnits="userSpaceOnUse" x="3.14123" y="6.82007" width="33" height="25" fill="black">
<rect fill="white" x="3.14123" y="6.82007" width="33" height="25"/>
<path fill-rule="evenodd" clip-rule="evenodd" d="M24.5394 19.5862C26.8098 17.341 29.7904 15.8119 33.1117 15.3666C34.1817 15.2161 35.1348 16.1691 34.9843 17.2391C33.9978 24.5956 27.6946 30.2802 20.0706 30.2802C20.0706 30.2365 20.0708 30.1928 20.0712 30.1492C20.0708 30.1488 20.0704 30.1484 20.07 30.148C20.0704 30.192 20.0706 30.2361 20.0706 30.2802C12.4466 30.2802 6.14339 24.5956 5.15695 17.2391C5.00647 16.1691 5.95947 15.216 7.02951 15.3665C10.2151 15.7937 13.0872 17.2178 15.3199 19.3144C15.1798 15.826 16.1874 12.3391 18.3532 9.47226C19.0174 8.58081 20.4298 8.60776 21.1285 9.52523C23.4262 12.5039 24.5676 16.0694 24.5394 19.5862Z"/>
</mask>
<path fill-rule="evenodd" clip-rule="evenodd" d="M24.5394 19.5862C26.8098 17.341 29.7904 15.8119 33.1117 15.3666C34.1817 15.2161 35.1348 16.1691 34.9843 17.2391C33.9978 24.5956 27.6946 30.2802 20.0706 30.2802C20.0706 30.2365 20.0708 30.1928 20.0712 30.1492C20.0708 30.1488 20.0704 30.1484 20.07 30.148C20.0704 30.192 20.0706 30.2361 20.0706 30.2802C12.4466 30.2802 6.14339 24.5956 5.15695 17.2391C5.00647 16.1691 5.95947 15.216 7.02951 15.3665C10.2151 15.7937 13.0872 17.2178 15.3199 19.3144C15.1798 15.826 16.1874 12.3391 18.3532 9.47226C19.0174 8.58081 20.4298 8.60776 21.1285 9.52523C23.4262 12.5039 24.5676 16.0694 24.5394 19.5862Z" fill="#4F4F4F"/>
<path d="M24.5393 19.5862L23.5394 19.5781L23.5199 22.0006L25.2425 20.2972L24.5393 19.5862ZM33.1117 15.3666L33.2446 16.3577L33.251 16.3568L33.1117 15.3666ZM34.9843 17.2391L33.994 17.0999L33.9931 17.1062L34.9843 17.2391ZM20.0706 30.2802H19.0706V31.2802H20.0706V30.2802ZM20.0712 30.1492L21.0711 30.1577L21.0747 29.7422L20.7827 29.4465L20.0712 30.1492ZM20.07 30.148L20.7816 29.4454L19.0488 27.6907L19.0701 30.1567L20.07 30.148ZM20.0706 30.2802V31.2802H21.0706V30.2802H20.0706ZM5.15695 17.2391L6.14809 17.1062L6.1472 17.0998L5.15695 17.2391ZM7.02951 15.3665L6.89025 16.3568L6.89661 16.3577L7.02951 15.3665ZM15.3199 19.3144L14.6354 20.0434L16.4172 21.7166L16.3191 19.2743L15.3199 19.3144ZM18.3532 9.47226L19.1511 10.0751L19.1551 10.0697L18.3532 9.47226ZM21.1285 9.52523L20.3329 10.1311L20.3367 10.136L21.1285 9.52523ZM25.2425 20.2972C27.3636 18.1998 30.1459 16.7732 33.2446 16.3577L32.9788 14.3754C29.4348 14.8506 26.256 16.4823 23.8362 18.8751L25.2425 20.2972ZM33.251 16.3568C33.6626 16.2989 34.0519 16.6882 33.994 17.0999L35.9745 17.3784C36.2176 15.65 34.7009 14.1332 32.9725 14.3763L33.251 16.3568ZM33.9931 17.1062C33.0722 23.9739 27.186 29.2802 20.0706 29.2802V31.2802C28.2033 31.2802 34.9234 25.2173 35.9754 17.372L33.9931 17.1062ZM21.0706 30.2802C21.0706 30.2394 21.0708 30.1985 21.0711 30.1577L19.0712 30.1406C19.0708 30.1871 19.0706 30.2336 19.0706 30.2802H21.0706ZM19.3585 30.8507C19.3595 30.8516 19.3603 30.8525 19.3604 30.8526C19.3607 30.8529 19.3602 30.8524 19.3596 30.8518L20.7827 29.4465C20.7818 29.4455 20.7809 29.4447 20.7808 29.4446C20.7805 29.4443 20.781 29.4448 20.7816 29.4454L19.3585 30.8507ZM19.0701 30.1567C19.0704 30.1978 19.0706 30.239 19.0706 30.2802H21.0706C21.0706 30.2332 21.0704 30.1863 21.07 30.1394L19.0701 30.1567ZM20.0706 29.2802C12.9552 29.2802 7.06897 23.9739 6.14807 17.1062L4.16582 17.372C5.2178 25.2173 11.938 31.2802 20.0706 31.2802V29.2802ZM6.1472 17.0998C6.08931 16.6882 6.47859 16.2989 6.89026 16.3568L7.16877 14.3763C5.44036 14.1332 3.92363 15.6499 4.16669 17.3783L6.1472 17.0998ZM6.89661 16.3577C9.86871 16.7562 12.5496 18.0848 14.6354 20.0434L16.0044 18.5854C13.6247 16.3508 10.5615 14.8312 7.16241 14.3754L6.89661 16.3577ZM17.5553 8.86948C15.2424 11.931 14.1719 15.648 14.3207 19.3545L16.3191 19.2743C16.1878 16.004 17.1324 12.7472 19.1511 10.075L17.5553 8.86948ZM21.9241 8.91936C20.8555 7.51622 18.6447 7.40728 17.5513 8.8748L19.1551 10.0697C19.3901 9.75433 20.0041 9.69931 20.333 10.1311L21.9241 8.91936ZM25.5393 19.5942C25.5694 15.8567 24.3565 12.0726 21.9203 8.91445L20.3367 10.136C22.496 12.9352 23.5659 16.2822 23.5394 19.5781L25.5393 19.5942Z" fill="white" mask="url(#path-2-outside-1_492_41)"/>
<rect x="0.5" y="0.5" width="39" height="39" stroke="black"/>
</svg>
