<svg width="40" height="40" viewBox="0 0 40 40" fill="none" xmlns="http://www.w3.org/2000/svg">
<path fill-rule="evenodd" clip-rule="evenodd" d="M24.5392 19.5862C26.8097 17.341 29.7902 15.8119 33.1116 15.3666C34.1816 15.2161 35.1346 16.1691 34.9842 17.2391C33.9977 24.5956 27.6945 30.2802 20.0705 30.2802C20.0705 30.2365 20.0707 30.1928 20.0711 30.1492C20.0707 30.1488 20.0703 30.1484 20.0699 30.148C20.0703 30.192 20.0705 30.2361 20.0705 30.2802C12.4465 30.2802 6.14327 24.5956 5.15683 17.2391C5.00636 16.1691 5.95936 15.216 7.0294 15.3665C10.215 15.7937 13.087 17.2178 15.3198 19.3144C15.1797 15.826 16.1873 12.3391 18.3531 9.47226C19.0173 8.58081 20.4297 8.60776 21.1284 9.52523C23.4261 12.5039 24.5675 16.0694 24.5392 19.5862Z" fill="#4F4F4F"/>
</svg>
