<svg width="83" height="93" viewBox="0 0 83 93" fill="none" xmlns="http://www.w3.org/2000/svg">
<path fill-rule="evenodd" clip-rule="evenodd" d="M50.7214 9.22222C50.7214 4.15 46.5714 0 41.4991 0C36.4269 0 32.2769 4.15 32.2769 9.22222C32.2769 14.2944 36.4269 18.4444 41.4991 18.4444C46.5714 18.4444 50.7214 14.2944 50.7214 9.22222ZM55.3333 32.2781H78.3889C80.925 32.2781 83 30.2031 83 27.667C83 25.1309 80.925 23.0559 78.3889 23.0559H4.61111C2.075 23.0559 0 25.1309 0 27.667C0 30.2031 2.075 32.2781 4.61111 32.2781H27.6667V87.6115C27.6667 90.1476 29.7417 92.2226 32.2778 92.2226C34.8139 92.2226 36.8889 90.1476 36.8889 87.6115V64.5559H46.1111V87.6115C46.1111 90.1476 48.1861 92.2226 50.7222 92.2226C53.2583 92.2226 55.3333 90.1476 55.3333 87.6115V32.2781Z" fill="#F7F6F4" fill-opacity="0.8"/>
</svg>
