<svg width="40" height="40" viewBox="0 0 40 40" fill="none" xmlns="http://www.w3.org/2000/svg">
<path fill-rule="evenodd" clip-rule="evenodd" d="M24.5394 19.5862C26.8098 17.341 29.7904 15.8119 33.1117 15.3666C34.1818 15.2161 35.1348 16.1691 34.9843 17.2391C33.9978 24.5956 27.6946 30.2802 20.0706 30.2802C20.0706 30.2365 20.0708 30.1928 20.0712 30.1492C20.0708 30.1488 20.0704 30.1484 20.07 30.148C20.0704 30.192 20.0706 30.2361 20.0706 30.2802C12.4466 30.2802 6.14339 24.5956 5.15695 17.2391C5.00648 16.1691 5.95948 15.216 7.02952 15.3665C10.2151 15.7937 13.0872 17.2178 15.3199 19.3144C15.1798 15.826 16.1874 12.3391 18.3532 9.47226C19.0174 8.58081 20.4298 8.60776 21.1285 9.52523C23.4262 12.5039 24.5676 16.0694 24.5394 19.5862Z" fill="#4F4F4F"/>
</svg>
