<svg width="234" height="33" viewBox="0 0 234 33" fill="none" xmlns="http://www.w3.org/2000/svg">
<path d="M32.6797 11.0448L22.9203 10.1979L19.1093 1.22496C18.4237 -0.408321 16.0847 -0.408321 15.3991 1.22496L11.5882 10.2181L1.84895 11.0448C0.0745208 11.186 -0.651383 13.404 0.699604 14.5735L8.09979 20.9857L5.88175 30.5031C5.47847 32.2372 7.35372 33.6083 8.88618 32.6808L17.2542 27.6398L25.6223 32.7009C27.1547 33.6285 29.03 32.2573 28.6267 30.5232L26.4087 20.9857L33.8089 14.5735C35.1599 13.404 34.4541 11.186 32.6797 11.0448Z" fill="#ECA39D"/>
<path d="M82.4954 11.0448L72.736 10.1979L68.925 1.22496C68.2394 -0.408321 65.9004 -0.408321 65.2148 1.22496L61.4038 10.2181L51.6646 11.0448C49.8902 11.186 49.1643 13.404 50.5153 14.5735L57.9155 20.9857L55.6974 30.5031C55.2941 32.2372 57.1694 33.6083 58.7019 32.6808L67.0699 27.6398L75.438 32.7009C76.9704 33.6285 78.8457 32.2573 78.4424 30.5232L76.2244 20.9857L83.6245 14.5735C84.9755 13.404 84.2698 11.186 82.4954 11.0448Z" fill="#ECA39D"/>
<path d="M132.311 11.0448L122.552 10.1979L118.741 1.22496C118.055 -0.408321 115.716 -0.408321 115.03 1.22496L111.22 10.2181L101.48 11.0448C99.7059 11.186 98.98 13.404 100.331 14.5735L107.731 20.9857L105.513 30.5031C105.11 32.2372 106.985 33.6083 108.518 32.6808L116.886 27.6398L125.254 32.7009C126.786 33.6285 128.661 32.2573 128.258 30.5232L126.04 20.9857L133.44 14.5735C134.791 13.404 134.085 11.186 132.311 11.0448Z" fill="#ECA39D"/>
<path d="M182.127 11.0448L172.367 10.1979L168.556 1.22496C167.871 -0.408321 165.532 -0.408321 164.846 1.22496L161.035 10.2181L151.296 11.0448C149.522 11.186 148.796 13.404 150.147 14.5735L157.547 20.9857L155.329 30.5031C154.925 32.2372 156.801 33.6083 158.333 32.6808L166.701 27.6398L175.069 32.7009C176.602 33.6285 178.477 32.2573 178.074 30.5232L175.856 20.9857L183.256 14.5735C184.607 13.404 183.901 11.186 182.127 11.0448Z" fill="#ECA39D"/>
<path fill-rule="evenodd" clip-rule="evenodd" d="M222.183 10.1979L231.942 11.0448C233.717 11.186 234.423 13.404 233.072 14.5735L225.671 20.9857L227.889 30.5232C228.293 32.2573 226.417 33.6285 224.885 32.7009L216.517 27.6398L208.149 32.6808C206.616 33.6083 204.741 32.2372 205.144 30.5031L207.362 20.9857L199.962 14.5735C198.611 13.404 199.337 11.186 201.112 11.0448L210.851 10.2181L214.662 1.22496C215.347 -0.408321 217.686 -0.408321 218.372 1.22496L222.183 10.1979ZM208.935 28.4469L216.517 23.8697L224.119 28.4671L222.102 19.8369L228.797 14.0297L219.965 13.2634L216.517 5.11719L213.089 13.2433L204.257 14.0095L210.952 19.8167L208.935 28.4469Z" fill="#ECA39D"/>
</svg>
