<svg width="30" height="30" viewBox="0 0 30 30" fill="none" xmlns="http://www.w3.org/2000/svg">
<path fill-rule="evenodd" clip-rule="evenodd" d="M19.4889 20.3933C20.0667 19.8711 20.8222 19.5378 21.6667 19.5378C23.4556 19.5378 24.9111 20.9933 24.9111 22.7822C24.9111 24.5711 23.4556 26.0266 21.6667 26.0266C19.8778 26.0266 18.4222 24.5711 18.4222 22.7822C18.4222 22.5378 18.4556 22.2933 18.5111 22.06L10.6 17.4378C10 17.9933 9.21111 18.3378 8.33333 18.3378C6.48889 18.3378 5 16.8489 5 15.0044C5 13.16 6.48889 11.6711 8.33333 11.6711C9.21111 11.6711 10 12.0155 10.6 12.5711L18.4333 8.00442C18.3778 7.74887 18.3333 7.49331 18.3333 7.22664C18.3333 5.3822 19.8222 3.89331 21.6667 3.89331C23.5111 3.89331 25 5.3822 25 7.22664C25 9.07109 23.5111 10.56 21.6667 10.56C20.7889 10.56 20 10.2155 19.4 9.65998L11.5667 14.2266C11.6222 14.4822 11.6667 14.7378 11.6667 15.0044C11.6667 15.2711 11.6222 15.5266 11.5667 15.7822L19.4889 20.3933ZM22.7778 7.22666C22.7778 6.61555 22.2778 6.11555 21.6666 6.11555C21.0555 6.11555 20.5555 6.61555 20.5555 7.22666C20.5555 7.83777 21.0555 8.33777 21.6666 8.33777C22.2778 8.33777 22.7778 7.83777 22.7778 7.22666ZM8.33323 16.1155C7.72212 16.1155 7.22212 15.6155 7.22212 15.0044C7.22212 14.3933 7.72212 13.8933 8.33323 13.8933C8.94435 13.8933 9.44435 14.3933 9.44435 15.0044C9.44435 15.6155 8.94435 16.1155 8.33323 16.1155ZM20.5555 22.8045C20.5555 23.4156 21.0555 23.9156 21.6666 23.9156C22.2778 23.9156 22.7778 23.4156 22.7778 22.8045C22.7778 22.1934 22.2778 21.6934 21.6666 21.6934C21.0555 21.6934 20.5555 22.1934 20.5555 22.8045Z" fill="#F7F6F4"/>
</svg>
