<svg width="19" height="19" viewBox="0 0 19 19" fill="none" xmlns="http://www.w3.org/2000/svg">
<path fill-rule="evenodd" clip-rule="evenodd" d="M9.4905 0C4.2465 0 0 4.256 0 9.5C0 14.744 4.2465 19 9.4905 19C14.744 19 19 14.744 19 9.5C19 4.256 14.744 0 9.4905 0ZM9.63583 10.3143C10.233 10.3143 10.7215 9.82571 10.7215 9.22857V4.88571C10.7215 4.28857 10.233 3.8 9.63583 3.8C9.03868 3.8 8.55011 4.28857 8.55011 4.88571V9.22857C8.55011 9.82571 9.03868 10.3143 9.63583 10.3143ZM1.89999 9.49989C1.89999 13.6989 5.30099 17.0999 9.49999 17.0999C13.699 17.0999 17.1 13.6989 17.1 9.49989C17.1 5.30089 13.699 1.89989 9.49999 1.89989C5.30099 1.89989 1.89999 5.30089 1.89999 9.49989Z" fill="#4F4F4F"/>
</svg>
