<svg width="40" height="40" viewBox="0 0 40 40" fill="none" xmlns="http://www.w3.org/2000/svg">
<path fill-rule="evenodd" clip-rule="evenodd" d="M23.9065 6.19728C25.1615 7.3965 26.2771 8.73515 27.2532 10.1714C29.805 13.9503 31.311 18.4683 31.311 23.3349C31.311 29.4983 26.3189 34.4904 20.1555 34.4904C13.9921 34.4904 9 29.4983 9 23.3349C9 19.793 9.94822 16.4743 11.6076 13.6296C11.8307 13.2252 12.0678 12.8487 12.3188 12.4722C12.6534 11.9563 13.4204 12.1376 13.5737 12.7232C13.6574 13.03 13.7132 13.1973 13.8526 13.4762C14.6196 15.3308 16.3766 16.6277 18.524 16.6277C21.3965 16.6277 23.279 14.299 23.279 11.4264C23.279 9.87859 23.0001 8.14949 22.7352 6.83872C22.5957 6.16939 23.4185 5.72317 23.9065 6.19728ZM15.2611 25.9285C15.2611 28.3548 17.2691 30.3071 19.7512 30.3071C23.4464 30.3071 26.4444 27.309 26.4305 23.6138C26.4305 22.1217 26.2632 20.6436 25.9424 19.2213C25.8309 18.7053 25.1895 18.538 24.799 18.9006C23.3349 20.2811 21.2293 21.1596 19.1794 21.5779C16.7252 22.0799 15.2611 23.6695 15.2611 25.9285Z" fill="#4F4F4F"/>
</svg>
