<svg width="30" height="30" viewBox="0 0 30 30" fill="none" xmlns="http://www.w3.org/2000/svg">
<path d="M27.5 15C27.5 8.1 21.9 2.5 15 2.5C8.1 2.5 2.5 8.1 2.5 15C2.5 21.9 8.1 27.5 15 27.5C21.9 27.5 27.5 21.9 27.5 15Z" stroke="#F7F6F4" stroke-width="2"/>
<path d="M14.1667 12.0833C14.1667 13.2339 13.2339 14.1667 12.0833 14.1667C10.9327 14.1667 10 13.2339 10 12.0833C10 10.9327 10.9327 10 12.0833 10C13.2339 10 14.1667 10.9327 14.1667 12.0833Z" fill="#F7F6F4"/>
<path d="M20 12.0833C20 13.2339 19.0673 14.1667 17.9167 14.1667C16.7661 14.1667 15.8333 13.2339 15.8333 12.0833C15.8333 10.9327 16.7661 10 17.9167 10C19.0673 10 20 10.9327 20 12.0833Z" fill="#F7F6F4"/>
<path d="M14.1667 17.9167C14.1667 19.0673 13.2339 20 12.0833 20C10.9327 20 10 19.0673 10 17.9167C10 16.7661 10.9327 15.8333 12.0833 15.8333C13.2339 15.8333 14.1667 16.7661 14.1667 17.9167Z" fill="#F7F6F4"/>
<path d="M20 17.9167C20 19.0673 19.0673 20 17.9167 20C16.7661 20 15.8333 19.0673 15.8333 17.9167C15.8333 16.7661 16.7661 15.8333 17.9167 15.8333C19.0673 15.8333 20 16.7661 20 17.9167Z" fill="#F7F6F4"/>
</svg>
